<svg width="101" height="17" viewBox="0 0 101 17" fill="none"
	xmlns="http://www.w3.org/2000/svg">
	<path d="M17.3172 7.43341L13.8316 10.8179L14.6536 15.602C14.686 15.7949 14.6638 15.9929 14.5895 16.1739C14.5151 16.3549 14.3916 16.5117 14.2328 16.6266C14.074 16.7416 13.8861 16.8102 13.6903 16.8247C13.4945 16.8392 13.2985 16.7991 13.1243 16.7089L8.81706 14.4495L4.50934 16.7089C3.74699 17.1159 2.8331 16.4665 2.98006 15.602L3.8067 10.8179L0.321027 7.43341C-0.308139 6.82511 0.0408875 5.76401 0.904268 5.64052L5.7167 4.94074L7.87056 0.586582C8.26091 -0.200094 9.37688 -0.190947 9.76264 0.586582L11.9165 4.94074L16.7294 5.64052C17.5928 5.76401 17.9418 6.82511 17.3172 7.43341Z" fill="#F5E01F"/>
	<path d="M38.1585 7.43341L34.6728 10.8179L35.4949 15.602C35.5273 15.7949 35.5051 15.9929 35.4307 16.1739C35.3564 16.3549 35.2329 16.5117 35.0741 16.6266C34.9152 16.7416 34.7274 16.8102 34.5316 16.8247C34.3358 16.8392 34.1398 16.7991 33.9656 16.7089L29.6583 14.4495L25.3506 16.7089C24.5883 17.1159 23.6744 16.4665 23.8213 15.602L24.648 10.8179L21.1623 7.43341C20.5331 6.82511 20.8822 5.76401 21.7455 5.64052L26.558 4.94074L28.7118 0.586582C29.1022 -0.200094 30.2182 -0.190947 30.6039 0.586582L32.7578 4.94074L37.5707 5.64052C38.4341 5.76401 38.7831 6.82511 38.1585 7.43341Z" fill="#F5E01F"/>
	<path d="M58.9998 7.43341L55.5141 10.8179L56.3362 15.602C56.3686 15.7949 56.3464 15.9929 56.272 16.1739C56.1977 16.3549 56.0742 16.5117 55.9153 16.6266C55.7565 16.7416 55.5687 16.8102 55.3728 16.8247C55.177 16.8392 54.9811 16.7991 54.8069 16.7089L50.4996 14.4495L46.1919 16.7089C45.4296 17.1159 44.5157 16.4665 44.6626 15.602L45.4893 10.8179L42.0036 7.43341C41.3744 6.82511 41.7234 5.76401 42.5868 5.64052L47.3993 4.94074L49.5531 0.586582C49.9435 -0.200094 51.0594 -0.190947 51.4452 0.586582L53.5991 4.94074L58.4119 5.64052C59.2753 5.76401 59.6244 6.82511 58.9998 7.43341Z" fill="#F5E01F"/>
	<path d="M79.841 7.43341L76.3554 10.8179L77.1774 15.602C77.2098 15.7949 77.1876 15.9929 77.1133 16.1739C77.0389 16.3549 76.9154 16.5117 76.7566 16.6266C76.5978 16.7416 76.4099 16.8102 76.2141 16.8247C76.0183 16.8392 75.8223 16.7991 75.6481 16.7089L71.3409 14.4495L67.0331 16.7089C66.2708 17.1159 65.3569 16.4665 65.5039 15.602L66.3305 10.8179L62.8448 7.43341C62.2157 6.82511 62.5647 5.76401 63.4281 5.64052L68.2405 4.94074L70.3944 0.586582C70.7847 -0.200094 71.9007 -0.190947 72.2864 0.586582L74.4403 4.94074L79.2532 5.64052C80.1166 5.76401 80.4656 6.82511 79.841 7.43341Z" fill="#C7D6E8"/>
	<path d="M100.682 7.43341L97.1966 10.8179L98.0187 15.602C98.0511 15.7949 98.0289 15.9929 97.9546 16.1739C97.8802 16.3549 97.7567 16.5117 97.5979 16.6266C97.439 16.7416 97.2512 16.8102 97.0554 16.8247C96.8596 16.8392 96.6636 16.7991 96.4894 16.7089L92.1821 14.4495L87.8744 16.7089C87.1121 17.1159 86.1982 16.4665 86.3451 15.602L87.1718 10.8179L83.6861 7.43341C83.0569 6.82511 83.406 5.76401 84.2693 5.64052L89.0818 4.94074L91.2356 0.586582C91.626 -0.200094 92.742 -0.190947 93.1277 0.586582L95.2816 4.94074L100.094 5.64052C100.958 5.76401 101.307 6.82511 100.682 7.43341Z" fill="#C7D6E8"/>
</svg>
